<mxfile host="app.diagrams.net" modified="2021-11-30T13:29:55.563Z" agent="5.0 (Windows NT 10.0; Win64; x64) AppleWebKit/537.36 (KHTML, like Gecko) Chrome/96.0.4664.55 Safari/537.36 Edg/96.0.1054.34" etag="z5YevQZC64TLD-06WYbt" version="15.5.9" type="github">
  <diagram id="CgWaNTdLIScAdGl6yzTK" name="Page-1">
    <mxGraphModel dx="1422" dy="754" grid="1" gridSize="10" guides="1" tooltips="1" connect="1" arrows="1" fold="1" page="1" pageScale="1" pageWidth="850" pageHeight="1100" math="0" shadow="0">
      <root>
        <mxCell id="0" />
        <mxCell id="1" parent="0" />
        <mxCell id="shzp-K4sdFKsaDa9fvjv-3" value="" style="edgeStyle=orthogonalEdgeStyle;rounded=0;orthogonalLoop=1;jettySize=auto;html=1;" edge="1" parent="1" source="shzp-K4sdFKsaDa9fvjv-1" target="shzp-K4sdFKsaDa9fvjv-2">
          <mxGeometry relative="1" as="geometry">
            <Array as="points">
              <mxPoint x="280" y="230" />
              <mxPoint x="280" y="230" />
            </Array>
          </mxGeometry>
        </mxCell>
        <mxCell id="shzp-K4sdFKsaDa9fvjv-1" value="Start" style="strokeWidth=2;html=1;shape=mxgraph.flowchart.start_1;whiteSpace=wrap;" vertex="1" parent="1">
          <mxGeometry x="230" y="140" width="100" height="60" as="geometry" />
        </mxCell>
        <mxCell id="shzp-K4sdFKsaDa9fvjv-5" style="edgeStyle=orthogonalEdgeStyle;rounded=0;orthogonalLoop=1;jettySize=auto;html=1;entryX=0.5;entryY=0;entryDx=0;entryDy=0;" edge="1" parent="1" source="shzp-K4sdFKsaDa9fvjv-2" target="shzp-K4sdFKsaDa9fvjv-4">
          <mxGeometry relative="1" as="geometry" />
        </mxCell>
        <mxCell id="shzp-K4sdFKsaDa9fvjv-2" value="Masukkan data - 1" style="shape=parallelogram;perimeter=parallelogramPerimeter;whiteSpace=wrap;html=1;fixedSize=1;" vertex="1" parent="1">
          <mxGeometry x="210" y="230" width="140" height="60" as="geometry" />
        </mxCell>
        <mxCell id="shzp-K4sdFKsaDa9fvjv-8" value="" style="edgeStyle=orthogonalEdgeStyle;rounded=0;orthogonalLoop=1;jettySize=auto;html=1;" edge="1" parent="1" source="shzp-K4sdFKsaDa9fvjv-4" target="shzp-K4sdFKsaDa9fvjv-6">
          <mxGeometry relative="1" as="geometry">
            <Array as="points">
              <mxPoint x="280" y="410" />
              <mxPoint x="280" y="410" />
            </Array>
          </mxGeometry>
        </mxCell>
        <mxCell id="shzp-K4sdFKsaDa9fvjv-4" value="Masukkan data - 2" style="shape=parallelogram;perimeter=parallelogramPerimeter;whiteSpace=wrap;html=1;fixedSize=1;" vertex="1" parent="1">
          <mxGeometry x="210" y="320" width="140" height="60" as="geometry" />
        </mxCell>
        <mxCell id="shzp-K4sdFKsaDa9fvjv-11" value="" style="edgeStyle=orthogonalEdgeStyle;rounded=0;orthogonalLoop=1;jettySize=auto;html=1;" edge="1" parent="1" source="shzp-K4sdFKsaDa9fvjv-6" target="shzp-K4sdFKsaDa9fvjv-9">
          <mxGeometry relative="1" as="geometry">
            <Array as="points">
              <mxPoint x="280" y="500" />
              <mxPoint x="280" y="500" />
            </Array>
          </mxGeometry>
        </mxCell>
        <mxCell id="shzp-K4sdFKsaDa9fvjv-6" value="Masukkan data - 3" style="shape=parallelogram;perimeter=parallelogramPerimeter;whiteSpace=wrap;html=1;fixedSize=1;" vertex="1" parent="1">
          <mxGeometry x="210" y="410" width="140" height="60" as="geometry" />
        </mxCell>
        <mxCell id="shzp-K4sdFKsaDa9fvjv-13" style="edgeStyle=orthogonalEdgeStyle;rounded=0;orthogonalLoop=1;jettySize=auto;html=1;" edge="1" parent="1" source="shzp-K4sdFKsaDa9fvjv-9" target="shzp-K4sdFKsaDa9fvjv-12">
          <mxGeometry relative="1" as="geometry" />
        </mxCell>
        <mxCell id="shzp-K4sdFKsaDa9fvjv-9" value="Tampilkan Antrian data 1,2 dan 3" style="shape=parallelogram;perimeter=parallelogramPerimeter;whiteSpace=wrap;html=1;fixedSize=1;" vertex="1" parent="1">
          <mxGeometry x="175" y="500" width="210" height="60" as="geometry" />
        </mxCell>
        <mxCell id="shzp-K4sdFKsaDa9fvjv-12" value="End" style="strokeWidth=2;html=1;shape=mxgraph.flowchart.start_1;whiteSpace=wrap;" vertex="1" parent="1">
          <mxGeometry x="230" y="600" width="100" height="60" as="geometry" />
        </mxCell>
      </root>
    </mxGraphModel>
  </diagram>
</mxfile>
